<svg preserveAspectRatio="none" width="100%" height="100%" overflow="visible" style="display: block;" viewBox="0 0 24 24" fill="none" xmlns="http://www.w3.org/2000/svg">
<g id="Email" clip-path="url(#clip0_0_9)">
<path id="Vector" d="M21.5538 4.00051C21.4629 3.99115 21.3713 3.99115 21.2804 4.00051H2.61375C2.49411 4.00236 2.37527 4.02029 2.26042 4.05385L11.8938 13.6472L21.5538 4.00051Z" fill="var(--fill-0, #09090A)"/>
<path id="Vector_2" d="M22.5398 4.92708L12.8331 14.5938C12.5833 14.8421 12.2454 14.9815 11.8931 14.9815C11.5409 14.9815 11.2029 14.8421 10.9531 14.5938L1.33313 5.00042C1.30355 5.10911 1.28787 5.22111 1.28646 5.33375V18.6671C1.28646 19.0207 1.42693 19.3598 1.67698 19.6099C1.92703 19.8599 2.26617 20.0004 2.61979 20.0004H21.2865C21.6401 20.0004 21.9792 19.8599 22.2293 19.6099C22.4793 19.3598 22.6198 19.0207 22.6198 18.6671V5.33375C22.6145 5.19485 22.5875 5.05764 22.5398 4.92708ZM3.53313 18.6671H2.60646V17.7138L7.45313 12.9071L8.39313 13.8471L3.53313 18.6671ZM21.2731 18.6671H20.3398L15.4798 13.8471L16.4198 12.9071L21.2665 17.7138L21.2731 18.6671Z" fill="var(--fill-0, #09090A)"/>
<g id="Vector_3">
</g>
</g>
<defs>
<clipPath id="clip0_0_9">
<rect width="24" height="24" fill="white"/>
</clipPath>
</defs>
</svg>
