<svg preserveAspectRatio="none" width="100%" height="100%" overflow="visible" style="display: block;" viewBox="0 0 24 24" fill="none" xmlns="http://www.w3.org/2000/svg">
<g id="Plain 2">
<path id="Vector" fill-rule="evenodd" clip-rule="evenodd" d="M19.3742 2.82948C18.3816 3.00605 17.0399 3.45117 15.1432 4.0834L5.81193 7.1937C4.75122 7.54725 4.02486 7.79088 3.51789 8.03434C3.01457 8.27604 2.88063 8.44863 2.82906 8.57321C2.78558 8.67825 2.7593 8.7896 2.75121 8.90299C2.74161 9.03747 2.78422 9.25173 3.1263 9.693C3.47088 10.1375 4.01159 10.6802 4.8022 11.4708L5.08483 11.7534C5.09834 11.7669 5.1117 11.7803 5.12492 11.7934C5.34054 12.0088 5.51612 12.1842 5.65327 12.3862C5.92184 12.7816 6.07428 13.2444 6.09333 13.722C6.10306 13.966 6.06609 14.2114 6.02069 14.5127C6.01791 14.5312 6.01509 14.5499 6.01226 14.5688C5.91303 15.2299 5.84392 15.6925 5.81188 16.0532C5.78003 16.412 5.7916 16.609 5.82325 16.7468C5.84552 16.8437 5.87487 16.9378 5.91072 17.0286L20.1893 2.74999C19.9752 2.74643 19.7091 2.7699 19.3742 2.82948ZM22.0425 1.95748C22.8079 2.72285 22.8469 3.7668 22.6473 4.88842C22.4492 6.0024 21.967 7.44863 21.361 9.26673L18.1928 18.7709C17.8689 19.7426 17.6035 20.5387 17.3229 21.1276C17.0362 21.7293 16.6674 22.2632 16.0524 22.5339C15.7661 22.6599 15.4592 22.7323 15.1469 22.7476C14.4757 22.7806 13.9071 22.4679 13.3815 22.058C12.8671 21.6567 12.2738 21.0634 11.5495 20.3391L11.262 20.0516C10.9779 19.7675 10.9054 19.6997 10.8336 19.6516C10.6771 19.5468 10.4956 19.4856 10.3077 19.4743C10.2214 19.4691 10.1226 19.4791 9.72449 19.5331L9.62907 19.5461C8.99622 19.632 8.48761 19.701 8.07577 19.7317C7.65674 19.763 7.277 19.7605 6.91434 19.6718C5.64239 19.3606 4.65459 18.3589 4.36135 17.0827C4.27774 16.7188 4.2806 16.3391 4.31776 15.9205C4.35429 15.5092 4.43048 15.0016 4.52527 14.3701L4.52887 14.3461C4.58667 13.961 4.59786 13.8654 4.59453 13.7818C4.58664 13.5841 4.52354 13.3926 4.41238 13.2289C4.36539 13.1597 4.29954 13.0894 4.02419 12.8141L3.70429 12.4942C2.96013 11.7501 2.35059 11.1406 1.94082 10.612C1.52175 10.0715 1.20582 9.48581 1.25501 8.79626C1.27455 8.52231 1.33806 8.25329 1.4431 7.99953C1.70749 7.3608 2.25198 6.97825 2.86856 6.68216C3.47145 6.39265 4.28922 6.12009 5.28761 5.78733L14.7331 2.63896C16.5512 2.03291 17.9975 1.55083 19.1115 1.35266C20.2331 1.15314 21.2771 1.19212 22.0425 1.95748ZM21.25 3.81065L6.95304 18.1076C7.05466 18.1519 7.16085 18.1879 7.27079 18.2148C7.40811 18.2484 7.60497 18.2627 7.96415 18.2359C8.32534 18.209 8.78891 18.1464 9.45133 18.0565L9.52278 18.0468C9.54228 18.0441 9.56155 18.0415 9.5806 18.0389C9.89226 17.9964 10.1461 17.9618 10.398 17.977C10.852 18.0044 11.2905 18.1523 11.6684 18.4054C11.878 18.5458 12.0591 18.7271 12.2813 18.9496C12.2949 18.9632 12.3087 18.977 12.3227 18.9909L12.5739 19.2422C13.3434 20.0117 13.8716 20.5379 14.3041 20.8753C14.7339 21.2106 14.9434 21.2558 15.0733 21.2494C15.2026 21.2431 15.3297 21.2131 15.4481 21.161C15.5672 21.1086 15.7343 20.9744 15.9688 20.4823C16.2048 19.9871 16.4418 19.2803 16.786 18.2479L19.9165 8.85655C20.5488 6.95984 20.9939 5.61825 21.1705 4.6257C21.2301 4.2908 21.2536 4.02476 21.25 3.81065Z" fill="var(--fill-0, #19B9FF)"/>
</g>
</svg>
